<svg width="38" height="38" viewBox="0 0 38 38" fill="none" xmlns="http://www.w3.org/2000/svg">
<g clip-path="url(#clip0_17_237)">
<path d="M33.42 8.3125H10.5391C8.01562 8.3125 5.9375 10.3543 5.9375 12.8643V31.0732C5.9375 33.5832 8.01562 35.625 10.5391 35.625H33.3984C35.9219 35.625 38 33.682 38 31.1719V12.8643C38 10.3543 35.9456 8.3125 33.42 8.3125ZM27.694 12.8651C28.3683 12.8692 29.0263 13.0729 29.585 13.4505C30.1437 13.8282 30.5781 14.3628 30.8333 14.987C31.0885 15.6112 31.1532 16.2969 31.0191 16.9578C30.885 17.6187 30.5583 18.2251 30.08 18.7005C29.6017 19.1759 28.9933 19.499 28.3316 19.629C27.67 19.7591 26.9846 19.6903 26.3619 19.4313C25.7393 19.1723 25.2073 18.7347 24.8331 18.1737C24.4589 17.6127 24.2592 16.9535 24.2591 16.2791C24.2627 15.3711 24.6263 14.5015 25.2703 13.8613C25.9143 13.2211 26.7859 12.8626 27.694 12.8643V12.8651ZM10.5086 33.3495C9.24691 33.3495 8.29246 32.3289 8.29246 31.0739V26.2623L15.0063 20.2662C15.6626 19.6888 16.5135 19.3818 17.3873 19.407C18.261 19.4322 19.0928 19.7878 19.7147 20.402L24.3638 25.0117L15.9771 33.3487L10.5086 33.3495ZM35.625 31.0732C35.6249 31.3723 35.5659 31.6684 35.4512 31.9447C35.3366 32.221 35.1687 32.472 34.957 32.6833C34.7453 32.8946 34.494 33.0622 34.2176 33.1764C33.9411 33.2905 33.6449 33.3491 33.3457 33.3487H19.2227L27.9122 24.7148C28.5288 24.1946 29.309 23.9083 30.1158 23.9062C30.9226 23.904 31.7043 24.1861 32.3237 24.703L35.625 27.5047V31.0732Z" fill="#264653"/>
<path d="M28.5 2.375H4.75C3.49022 2.375 2.28204 2.87545 1.39124 3.76624C0.500445 4.65704 0 5.86522 0 7.125L0 26.125C0.000868743 27.1781 0.351084 28.2012 0.995769 29.0339C1.64045 29.8666 2.54318 30.4619 3.5625 30.7266V11.2812C3.5625 9.864 4.1255 8.5048 5.12765 7.50265C6.1298 6.5005 7.489 5.9375 8.90625 5.9375H33.1016C32.8369 4.91818 32.2416 4.01546 31.4089 3.37077C30.5762 2.72608 29.5531 2.37587 28.5 2.375Z" fill="#264653"/>
</g>
<defs>
<clipPath id="clip0_17_237">
<rect width="38" height="38" fill="white"/>
</clipPath>
</defs>
</svg>
